<svg width="99" height="99" viewBox="0 0 99 99" fill="none" xmlns="http://www.w3.org/2000/svg">
<path d="M99 49.5C99 76.8381 76.8381 99 49.5 99C22.1619 99 0 76.8381 0 49.5C0 22.1619 22.1619 0 49.5 0C76.8381 0 99 22.1619 99 49.5ZM74.4376 30.7498C72.6253 28.9376 69.6871 28.9376 67.8748 30.7498C67.831 30.7936 67.7899 30.84 67.7517 30.8886L46.2664 58.2661L33.3127 45.3124C31.5005 43.5002 28.5622 43.5002 26.7499 45.3124C24.9376 47.1247 24.9376 50.063 26.7499 51.8753L43.1248 68.2502C44.9371 70.0624 47.8754 70.0624 49.6876 68.2502C49.728 68.2098 49.7661 68.1673 49.8017 68.1227L74.5035 37.2455C76.2496 35.4285 76.2277 32.5399 74.4376 30.7498Z" fill="#1D813A"/>
</svg>
