<svg width="34" height="34" viewBox="0 0 34 34" fill="none" xmlns="http://www.w3.org/2000/svg">
<path fill-rule="evenodd" clip-rule="evenodd" d="M14.5227 18.0631L8.52543 16.064L8.52542 16.064L8.52541 16.064C6.17221 15.2796 4.99561 14.8874 4.99561 14.1667C4.99561 13.4459 6.17221 13.0537 8.52543 12.2693L24.5386 6.93157C26.1944 6.37964 27.0223 6.10368 27.4593 6.54069C27.8963 6.97771 27.6203 7.8056 27.0684 9.46139L21.7307 25.4746C20.9463 27.8278 20.5541 29.0044 19.8333 29.0044C19.1126 29.0044 18.7204 27.8278 17.936 25.4746L15.9369 19.4773L21.9571 13.4571C22.3476 13.0666 22.3476 12.4334 21.9571 12.0429C21.5666 11.6524 20.9334 11.6524 20.5429 12.0429L14.5227 18.0631Z" fill="#05CE7A"/>
</svg>
