<svg width="22" height="34" viewBox="0 0 22 34" fill="none" xmlns="http://www.w3.org/2000/svg">
<path d="M17 2.125C18.1736 2.125 19.125 3.0764 19.125 4.25V29.75C19.125 30.9236 18.1736 31.875 17 31.875H4.25C3.0764 31.875 2.125 30.9236 2.125 29.75V4.25C2.125 3.0764 3.07639 2.125 4.25 2.125H17ZM4.25 0C1.90279 0 0 1.90279 0 4.25V29.75C0 32.0972 1.90279 34 4.25 34H17C19.3472 34 21.25 32.0972 21.25 29.75V4.25C21.25 1.90279 19.3472 0 17 0H4.25Z" fill="#071239"/>
<path d="M10.625 29.75C11.7986 29.75 12.75 28.7986 12.75 27.625C12.75 26.4514 11.7986 25.5 10.625 25.5C9.4514 25.5 8.5 26.4514 8.5 27.625C8.5 28.7986 9.4514 29.75 10.625 29.75Z" fill="#071239"/>
</svg>
